<svg height="496pt" viewBox="0 0 496 496.01241" width="496pt" xmlns="http://www.w3.org/2000/svg"><path d="m8.007812 48.011719h480v80h-480zm0 0" fill="#ff5023"/><path d="m112.007812 224.011719h72v64h-72zm0 0" fill="#00665a"/><path d="m24.007812 328.011719v160h448v-160zm224 136c-30.929687 0-56-25.070313-56-56 0-30.925781 25.070313-56 56-56 30.925782 0 56 25.074219 56 56 .007813 14.855469-5.886718 29.105469-16.390624 39.609375-10.503907 10.503906-24.753907 16.402344-39.609376 16.390625zm0 0" fill="#ff5023"/><path d="m40.007812 128.011719h32v160h-32zm0 0" fill="#9b8579"/><path d="m347.285156 84.730469c-2.960937-3.035157-7.035156-4.742188-11.277344-4.71875h-2.082031c-3.503906 5.015625-9.429687 7.761719-15.519531 7.199219-4.089844-.28125-8.050781-1.574219-11.519531-3.757813-7.097657-4.351563-16.105469-4.035156-22.878907.800781-7.351562 4.558594-16.652343 4.558594-24 0-7.328124-4.648437-16.675781-4.648437-24 0-7.351562 4.558594-16.652343 4.558594-24 0-6.777343-4.835937-15.785156-5.152344-22.882812-.800781-3.484375 2.148437-7.433594 3.4375-11.519531 3.757813-4.882813.507812-9.738281-1.160157-13.277344-4.558594-.835937-.824219-1.613281-1.707032-2.320313-2.640625h-2c-8.839843 0-16 7.164062-16 16 0 8.835937 7.160157 16 16 16h176c6.472657.019531 12.316407-3.875 14.789063-9.855469s1.085937-12.867188-3.511719-17.425781zm0 0c-2.960937-3.035157-7.035156-4.742188-11.277344-4.71875h-2.082031c-3.503906 5.015625-9.429687 7.761719-15.519531 7.199219-4.089844-.28125-8.050781-1.574219-11.519531-3.757813-7.097657-4.351563-16.105469-4.035156-22.878907.800781-7.351562 4.558594-16.652343 4.558594-24 0-7.328124-4.648437-16.675781-4.648437-24 0-7.351562 4.558594-16.652343 4.558594-24 0-6.777343-4.835937-15.785156-5.152344-22.882812-.800781-3.484375 2.148437-7.433594 3.4375-11.519531 3.757813-4.882813.507812-9.738281-1.160157-13.277344-4.558594-.835937-.824219-1.613281-1.707032-2.320313-2.640625h-2c-8.839843 0-16 7.164062-16 16 0 8.835937 7.160157 16 16 16h176c6.472657.019531 12.316407-3.875 14.789063-9.855469s1.085937-12.867188-3.511719-17.425781zm0 0" fill="#91cc04"/><path d="m248.007812 224.011719v64h136v-64zm0 0" fill="#00eed1"/><path d="m424.007812 128.011719h32v160h-32zm0 0" fill="#9b8579"/><path d="m8.007812 288.011719h480v40h-480zm0 0" fill="#d80027"/><path d="m304.007812 408.011719c0 30.929687-25.074218 56-56 56-30.929687 0-56-25.070313-56-56 0-30.925781 25.070313-56 56-56 30.925782 0 56 25.074219 56 56zm0 0" fill="#ffda44"/><path d="m336.007812 112.011719c0 17.671875-14.328124 32-32 32h-112c-17.675781 0-32-14.328125-32-32zm0 0" fill="#ff9811"/><g fill="#ffeb99"><path d="m228.007812 40.011719c0 2.210937-1.792968 4-4 4-2.210937 0-4-1.789063-4-4 0-2.207031 1.789063-4 4-4 2.207032 0 4 1.792969 4 4zm0 0"/><path d="m252.007812 24.011719c0 2.210937-1.792968 4-4 4-2.210937 0-4-1.789063-4-4 0-2.207031 1.789063-4 4-4 2.207032 0 4 1.792969 4 4zm0 0"/><path d="m204.007812 32.011719c0 2.210937-1.792968 4-4 4-2.210937 0-4-1.789063-4-4 0-2.207031 1.789063-4 4-4 2.207032 0 4 1.792969 4 4zm0 0"/><path d="m300.007812 32.011719c0 2.210937-1.792968 4-4 4-2.210937 0-4-1.789063-4-4 0-2.207031 1.789063-4 4-4 2.207032 0 4 1.792969 4 4zm0 0"/><path d="m276.007812 40.011719c0 2.210937-1.792968 4-4 4-2.210937 0-4-1.789063-4-4 0-2.207031 1.789063-4 4-4 2.207032 0 4 1.792969 4 4zm0 0"/></g><path d="m8.007812 16.011719h480v32h-480zm0 0" fill="#d80027"/><path d="m335.367188 48.011719c-2.003907-13.601563-10.304688-25.460938-22.402344-32-10.121094-5.441407-21.46875-8.195313-32.957032-8h-64c-11.492187-.195313-22.839843 2.558593-32.960937 8-12.09375 6.539062-20.398437 18.398437-22.402344 32-.417969 2.648437-.632812 5.320312-.636719 8h176c-.007812-2.679688-.21875-5.351563-.640624-8zm-35.359376-16c0 2.210937-1.792968 4-4 4-2.210937 0-4-1.789063-4-4 0-2.207031 1.789063-4 4-4 2.207032 0 4 1.792969 4 4zm-24 8c0 2.210937-1.792968 4-4 4-2.210937 0-4-1.789063-4-4 0-2.207031 1.789063-4 4-4 2.207032 0 4 1.792969 4 4zm-24-16c0 2.210937-1.792968 4-4 4-2.210937 0-4-1.789063-4-4 0-2.207031 1.789063-4 4-4 2.207032 0 4 1.792969 4 4zm-24 16c0 2.210937-1.792968 4-4 4-2.210937 0-4-1.789063-4-4 0-2.207031 1.789063-4 4-4 2.207032 0 4 1.792969 4 4zm-28-12c2.207032 0 4 1.792969 4 4 0 2.210937-1.792968 4-4 4-2.210937 0-4-1.789063-4-4 0-2.207031 1.789063-4 4-4zm0 0" fill="#ff9811"/><path d="m318.40625 87.210938c-4.089844-.28125-8.050781-1.574219-11.519531-3.757813-3.074219-2.054687-6.703125-3.117187-10.402344-3.039063-4.453125-.019531-8.804687 1.320313-12.476563 3.839844-7.34375 4.585938-16.660156 4.585938-24 0-7.34375-4.589844-16.660156-4.589844-24 0-7.34375 4.585938-16.660156 4.585938-24 0-6.742187-4.820312-15.707031-5.167968-22.800781-.882812l-.082031.082031c-3.484375 2.148437-7.433594 3.4375-11.519531 3.757813-6.859375.140624-13.277344-3.351563-16.894531-9.183594-3.613282-5.828125-3.878907-13.132813-.703126-19.214844v-2.800781h176v2.800781c3.132813 6.082031 2.84375 13.367188-.761718 19.183594-3.601563 5.816406-9.996094 9.316406-16.839844 9.214844zm0 0" fill="#d80027"/><path d="m248.007812 472.011719c35.34375 0 64-28.652344 64-64 0-35.34375-28.65625-64-64-64-35.347656 0-64 28.65625-64 64 .039063 35.332031 28.667969 63.960937 64 64zm0-112c26.507813 0 48 21.492187 48 48 0 26.511719-21.492187 48-48 48-26.511718 0-48-21.488281-48-48 .023438-26.496094 21.5-47.972657 48-48zm0 0"/><path d="m384.007812 472.011719h64c4.417969 0 8-3.582031 8-8v-112c0-4.417969-3.582031-8-8-8-4.417968 0-8 3.582031-8 8v104h-56c-4.417968 0-8 3.582031-8 8s3.582032 8 8 8zm0 0"/><path d="m352.007812 472.011719h8c4.417969 0 8-3.582031 8-8s-3.582031-8-8-8h-8c-4.417968 0-8 3.582031-8 8s3.582032 8 8 8zm0 0"/><path d="m360.007812 240.011719h-32c-4.417968 0-8 3.582031-8 8s3.582032 8 8 8h32c4.417969 0 8-3.582031 8-8s-3.582031-8-8-8zm0 0"/><path d="m488.007812 8.011719h-172.699218c-10.949219-5.476563-23.0625-8.222657-35.300782-8.0000002h-64c-12.242187-.2226568-24.355468 2.5234372-35.304687 8.0000002h-172.695313c-4.417968 0-7.9999995 3.582031-7.9999995 8v112c0 4.417969 3.5820315 8 7.9999995 8h24v144h-24c-4.417968 0-7.9999995 3.582031-7.9999995 8v40c0 4.417969 3.5820315 8 7.9999995 8h8v152c0 4.417969 3.582032 8 8 8h448c4.417969 0 8-3.582031 8-8v-152h8c4.417969 0 8-3.582031 8-8v-40c0-4.417969-3.582031-8-8-8h-24v-144h24c4.417969 0 8-3.582031 8-8v-112c0-4.417969-3.582031-8-8-8zm-8 32h-138.210937c-1.597656-5.742188-4.191406-11.15625-7.664063-16h145.875zm-144.082031 96h80.082031v144h-24v-56c0-4.417969-3.582031-8-8-8h-136c-4.417968 0-8 3.582031-8 8v56h-48v-56c0-4.417969-3.582031-8-8-8h-72c-4.417968 0-8 3.582031-8 8v56h-24v-144h80.183594c7.496094 10.042969 19.28125 15.96875 31.816406 16h112c12.53125-.03125 24.316407-5.957031 31.8125-16zm-79.917969 144v-48h120v48zm-136 0v-48h56v48zm209.292969-216c1.164063 3.730469.578125 7.789062-1.597656 11.03125-1.867187 2.828125-5.117187 4.425781-8.496094 4.167969-2.714843-.15625-5.351562-.949219-7.695312-2.320313l-.433594-.292969c-9.824219-6.023437-22.296875-5.59375-31.679687 1.09375-4.574219 2.625-10.195313 2.625-14.769532 0-10.097656-6.589844-23.132812-6.589844-33.230468 0-4.574219 2.625-10.195313 2.625-14.769532 0-9.523437-6.773437-22.203125-7.089844-32.054687-.800781-2.371094 1.371094-5.027344 2.179687-7.761719 2.363281-3.371094.324219-6.636719-1.285156-8.4375-4.152344-2.207031-3.253906-2.820312-7.332031-1.664062-11.089843zm-159.925781 56h157.261719c-3.402344 9.582031-12.460938 15.988281-22.628907 16h-112c-10.167968-.011719-19.230468-6.417969-22.632812-16zm172.175781-18.296875c-1.460937 1.488281-3.460937 2.316406-5.542969 2.296875h-176c-4.417968 0-8-3.582031-8-8-.003906-2.160157.882813-4.222657 2.453126-5.703125 1.167968-1.136719 2.679687-1.855469 4.296874-2.046875 5.214844 5.082031 12.402344 7.605469 19.648438 6.902343 5.246094-.441406 10.320312-2.097656 14.816406-4.839843.175782-.105469.34375-.207031.511719-.328125 4.324219-2.390625 9.640625-2.082032 13.65625.800781 10.097656 6.589844 23.132813 6.589844 33.230469 0 4.574218-2.625 10.195312-2.625 14.769531 0 10.097656 6.589844 23.132813 6.589844 33.230469 0 4.015625-2.882813 9.332031-3.191406 13.65625-.800781l.066406.039062c4.601562 2.964844 9.875 4.726563 15.335938 5.128906 7.214843.679688 14.367187-1.84375 19.558593-6.902343 3.859375.558593 6.734375 3.851562 6.769531 7.75.003907 2.160156-.886718 4.222656-2.457031 5.703125zm-61.542969-85.703125c9.140626-.058594 18.183594 1.902343 26.476563 5.753906 1.042969.941406 2.316406 1.589844 3.691406 1.878906 9.070313 5.148438 15.359375 14.089844 17.132813 24.367188h-158.605469c1.777344-10.277344 8.066406-19.214844 17.136719-24.367188 1.371094-.289062 2.644531-.9375 3.6875-1.878906 8.292968-3.851563 17.335937-5.8125 26.480468-5.753906zm-118.128906 8c-3.472656 4.84375-6.066406 10.257812-7.664062 16h-138.207032v-16zm-145.871094 32h136c.039063.304687.101563.601562.183594.898437-2.199218 5.371094-2.71875 11.285156-1.496094 16.957032-2.835937 1.1875-5.402343 2.929687-7.546874 5.128906-4.601563 4.460937-7.179688 10.605468-7.140626 17.015625.03125 10.398437 6.773438 19.582031 16.679688 22.738281.070312.414062.046875.855469.125 1.261719h-136.804688zm32 80h16v144h-16zm416 344h-432v-144h432zm16-160h-464v-24h464zm-32-40h-16v-144h16zm32-160h-136.800781c.078125-.398438.054688-.800781.128907-1.238281 3.601562-1.097657 6.878906-3.074219 9.535156-5.746094 4.597656-4.460938 7.175781-10.605469 7.136718-17.015625-.003906-9.65625-5.792968-18.375-14.699218-22.121094 1.230468-5.679687.710937-11.601563-1.488282-16.980469.082032-.296875.144532-.59375.1875-.898437h136zm0 0"/><path d="m432.007812 112.011719h32c4.417969 0 8-3.582031 8-8v-16c0-4.417969-3.582031-8-8-8-4.417968 0-8 3.582031-8 8v8h-24c-4.417968 0-8 3.582031-8 8s3.582032 8 8 8zm0 0"/><path d="m228.007812 40.011719c0 2.210937-1.792968 4-4 4-2.210937 0-4-1.789063-4-4 0-2.207031 1.789063-4 4-4 2.207032 0 4 1.792969 4 4zm0 0"/><path d="m252.007812 24.011719c0 2.210937-1.792968 4-4 4-2.210937 0-4-1.789063-4-4 0-2.207031 1.789063-4 4-4 2.207032 0 4 1.792969 4 4zm0 0"/><path d="m204.007812 32.011719c0 2.210937-1.792968 4-4 4-2.210937 0-4-1.789063-4-4 0-2.207031 1.789063-4 4-4 2.207032 0 4 1.792969 4 4zm0 0"/><path d="m300.007812 32.011719c0 2.210937-1.792968 4-4 4-2.210937 0-4-1.789063-4-4 0-2.207031 1.789063-4 4-4 2.207032 0 4 1.792969 4 4zm0 0"/><path d="m276.007812 40.011719c0 2.210937-1.792968 4-4 4-2.210937 0-4-1.789063-4-4 0-2.207031 1.789063-4 4-4 2.207032 0 4 1.792969 4 4zm0 0"/></svg>